<?xml version="1.0" encoding="UTF-8"?>
<svg id="_图层_1" data-name="图层 1" xmlns="http://www.w3.org/2000/svg" viewBox="0 0 1000 1000">
  <defs>
    <style>
      .cls-1 {
        fill: lime;
      }

      .cls-2 {
        fill: #4100ff;
      }
    </style>
  </defs>
  <circle class="cls-2" cx="500" cy="500" r="500"/>
  <g>
    <path class="cls-1" d="M126.22,397.35c0,8.24-2.91,14.98-8.73,20.23-5.82,5.26-12.29,7.88-19.38,7.88-8.24,0-14.98-2.84-20.23-8.52-5.26-5.68-7.88-12.21-7.88-19.59,0-7.95,2.77-14.62,8.3-20.02,5.54-5.39,12.14-8.09,19.81-8.09,8.23,0,14.97,2.91,20.23,8.73,5.25,5.82,7.88,12.29,7.88,19.38Zm-3.83,236.83h-48.56v-187.42h48.56v187.42Z"/>
    <path class="cls-1" d="M145.82,540.47c0-14.48,2.27-27.61,6.81-39.4,4.54-11.78,10.86-21.86,18.96-30.24,8.09-8.37,17.68-14.84,28.75-19.38,11.07-4.54,23.14-6.81,36.21-6.81,11.35,0,21.94,2.13,31.73,6.39,9.8,4.26,18.39,10.79,25.77,19.59v-109.05h46.86v272.62h-46.86v-23.86c-7.39,8.8-15.97,15.33-25.77,19.6-9.8,4.26-20.38,6.39-31.73,6.39-13.07,0-25.13-2.34-36.21-7.03-11.08-4.69-20.66-11.21-28.75-19.6-8.09-8.37-14.41-18.46-18.96-30.24-4.55-11.78-6.81-24.77-6.81-38.97Zm46.86,.85c0,15.91,4.83,28.47,14.48,37.7,9.65,9.23,21.44,13.84,35.36,13.84,15.9,0,28.32-4.69,37.27-14.06,8.94-9.37,13.7-22.15,14.27-38.33,.28-15.05-4.26-27.54-13.63-37.48-9.37-9.94-22.01-14.91-37.91-14.91-6.82,0-13.28,1.35-19.38,4.05-6.11,2.7-11.43,6.46-15.97,11.29-4.55,4.83-8.09,10.44-10.65,16.83-2.56,6.39-3.83,13.42-3.83,21.08Z"/>
    <path class="cls-1" d="M352.4,540.47c0-14.48,2.27-27.61,6.81-39.4,4.54-11.78,10.86-21.86,18.95-30.24,8.1-8.37,17.68-14.84,28.75-19.38,11.07-4.54,23.14-6.81,36.21-6.81,11.64,0,22.36,2.2,32.16,6.6,9.8,4.41,18.39,11.01,25.77,19.81v-21.3h46v184.87h-46v-24.71c-7.39,8.8-15.97,15.41-25.77,19.81-9.8,4.41-20.52,6.6-32.16,6.6-13.07,0-25.13-2.34-36.21-7.03-11.08-4.69-20.66-11.21-28.75-19.6-8.09-8.37-14.41-18.46-18.95-30.24-4.55-11.78-6.81-24.77-6.81-38.97Zm46.85,.85c0,15.91,4.83,28.47,14.48,37.7,9.65,9.23,21.44,13.84,35.36,13.84,15.9,0,28.33-4.69,37.27-14.06,8.94-9.37,13.7-22.15,14.27-38.33,.28-15.05-4.26-27.54-13.63-37.48-9.37-9.94-22.01-14.91-37.91-14.91-6.81,0-13.28,1.35-19.38,4.05-6.11,2.7-11.43,6.46-15.97,11.29-4.55,4.83-8.09,10.44-10.65,16.83-2.56,6.39-3.83,13.42-3.83,21.08Z"/>
    <path class="cls-1" d="M571.77,361.56h47.28l-.43,150.79,98.4-100.1,28.54,38.76-68.58,68.15,83.06,115.01h-57.93l-59.21-81.78-24.28,24.28v57.51h-47.28l.43-272.62Z"/>
    <path class="cls-1" d="M835.86,638.44c-12.5,0-24.43-2.42-35.78-7.24-11.36-4.83-21.37-11.5-30.03-20.02-8.66-8.52-15.55-18.6-20.66-30.24-5.11-11.64-7.67-24.28-7.67-37.91s2.41-26.84,7.24-38.76c4.82-11.93,11.43-22.22,19.81-30.88,8.37-8.66,18.32-15.48,29.82-20.45,11.5-4.97,23.92-7.46,37.27-7.46s25.77,2.49,37.27,7.46c11.5,4.97,21.44,11.79,29.82,20.45,8.37,8.66,14.97,18.95,19.81,30.88,4.83,11.93,7.24,24.85,7.24,38.76s-2.56,26.27-7.67,37.91c-5.11,11.65-12,21.72-20.66,30.24-8.67,8.52-18.68,15.19-30.03,20.02-11.36,4.83-23.29,7.24-35.78,7.24Zm0-146.53c-6.53,0-12.64,1.28-18.32,3.83-5.68,2.56-10.65,6.11-14.91,10.65-4.26,4.55-7.6,9.95-10.01,16.19-2.42,6.25-3.62,13.07-3.62,20.45,0,6.53,1.2,12.78,3.62,18.74,2.41,5.96,5.75,11.15,10.01,15.55,4.26,4.41,9.22,7.96,14.91,10.65,5.68,2.7,11.78,4.04,18.32,4.04s12.63-1.35,18.32-4.04c5.68-2.7,10.65-6.25,14.91-10.65,4.26-4.4,7.59-9.58,10.01-15.55,2.41-5.97,3.62-12.21,3.62-18.74,0-7.38-1.21-14.2-3.62-20.45-2.42-6.24-5.75-11.64-10.01-16.19-4.26-4.54-9.23-8.09-14.91-10.65-5.68-2.55-11.78-3.83-18.32-3.83Z"/>
  </g>
</svg>